<?xml version="1.0" encoding="UTF-8" standalone="no"?>
<svg
   xmlns:dc="http://purl.org/dc/elements/1.1/"
   xmlns:cc="http://creativecommons.org/ns#"
   xmlns:rdf="http://www.w3.org/1999/02/22-rdf-syntax-ns#"
   xmlns:svg="http://www.w3.org/2000/svg"
   xmlns="http://www.w3.org/2000/svg"
   xmlns:sodipodi="http://sodipodi.sourceforge.net/DTD/sodipodi-0.dtd"
   xmlns:inkscape="http://www.inkscape.org/namespaces/inkscape"
   version="1.0"
   width="563.49756"
   height="551.91748"
   viewBox="0 0 450.79805 441.53398"
   preserveAspectRatio="xMidYMid meet"
   id="svg2872"
   inkscape:version="0.48.5 r10040"
   sodipodi:docname="moustache.svg">
  <defs
     id="defs2882">
    <inkscape:perspective
       sodipodi:type="inkscape:persp3d"
       inkscape:vp_x="0 : 126.875 : 1"
       inkscape:vp_y="0 : 1000 : 0"
       inkscape:vp_z="588.75 : 126.875 : 1"
       inkscape:persp3d-origin="294.375 : 84.583333 : 1"
       id="perspective2884" />
    <inkscape:perspective
       id="perspective2972"
       inkscape:persp3d-origin="0.5 : 0.33333333 : 1"
       inkscape:vp_z="1 : 0.5 : 1"
       inkscape:vp_y="0 : 1000 : 0"
       inkscape:vp_x="0 : 0.5 : 1"
       sodipodi:type="inkscape:persp3d" />
  </defs>
  <sodipodi:namedview
     pagecolor="#ffffff"
     bordercolor="#666666"
     borderopacity="1"
     objecttolerance="10"
     gridtolerance="10"
     guidetolerance="10"
     inkscape:pageopacity="0"
     inkscape:pageshadow="2"
     inkscape:window-width="1535"
     inkscape:window-height="876"
     id="namedview2880"
     showgrid="false"
     inkscape:zoom="1.0221099"
     inkscape:cx="459.30275"
     inkscape:cy="308.29077"
     inkscape:window-x="65"
     inkscape:window-y="24"
     inkscape:window-maximized="1"
     inkscape:current-layer="svg2872"
     fit-margin-top="0"
     fit-margin-left="0"
     fit-margin-right="0"
     fit-margin-bottom="0" />
  <metadata
     id="metadata2874">
Created by potrace 1.11, written by Peter Selinger 2001-2013
<rdf:RDF>
  <cc:Work
     rdf:about="">
    <dc:format>image/svg+xml</dc:format>
    <dc:type
       rdf:resource="http://purl.org/dc/dcmitype/StillImage" />
  </cc:Work>
</rdf:RDF>
</metadata>
  <g
     transform="matrix(0.1,0,0,-0.1,5.463125,492.68797)"
     id="g2876"
     style="fill:#000000;stroke:none">
    <path
       d="m 2690,1480 c -121,-19 -230,-80 -324,-181 l -55,-60 -54,54 c -71,73 -165,133 -252,160 -99,31 -251,31 -355,-2 -100,-30 -230,-100 -314,-167 -227,-182 -448,-281 -602,-271 -43,3 -87,13 -111,26 -46,23 -109,83 -118,112 -10,32 3,84 26,105 28,25 101,23 164,-5 58,-26 77,-26 98,-3 30,33 21,62 -36,118 -153,147 -340,114 -491,-87 -45,-60 -46,-62 -46,-139 0,-94 26,-185 72,-255 118,-178 357,-310 637,-352 161,-24 528,-24 658,0 196,37 362,99 488,182 60,40 177,154 203,197 9,15 22,28 29,28 6,0 32,-27 57,-59 195,-253 578,-385 1061,-368 398,15 625,91 813,271 106,102 162,224 162,357 0,55 -5,72 -29,110 -40,63 -142,156 -198,182 -104,47 -226,20 -322,-71 -34,-32 -41,-46 -41,-76 0,-56 31,-66 110,-36 75,28 143,32 165,9 25,-24 34,-81 20,-115 -20,-48 -88,-101 -152,-120 -100,-29 -236,-3 -389,74 -66,33 -237,147 -319,213 -64,51 -233,134 -310,153 -82,19 -179,26 -245,16 z"
       id="path2878"
       style="stroke:none"
       inkscape:connector-curvature="0" />
  </g>
  <path
     style="fill:#000000;fill-opacity:1;stroke:none"
     d="m 377.16618,189.45652 0,-95.371173 C 376.30204,44.71381 354.30119,29.929607 329.88816,19.092622 266.57955,-1.169355 208.57572,-7.508735 136.70039,10.941239 112.16847,23.155801 83.883131,31.587451 78.010432,90.009651 l 0,97.816589 c -1.851841,0.41806 -1.006206,1.34324 -3.404121,3.12648 -0.185851,2.52925 0.425182,4.73975 1.773844,6.65519 -0.161759,5.98402 -1.410579,6.53274 -2.445415,8.15138 l 0.815139,17.93304 c 79.862751,19.43783 169.378181,31.72555 307.307131,8.15139 l 4.0757,-21.1936 c -3.53004,-5.8619 -7.05735,-11.72983 -8.96653,-21.1936 z"
     id="path2978"
     sodipodi:nodetypes="ccccccccccccc"
     inkscape:connector-curvature="0" />
  <path
     style="fill:#000000;fill-opacity:1;stroke:none"
     d="M 73.93474,206.57443 C 46.237571,193.64742 13.988298,170.9659 0.57229522,188.64139 -6.1228658,231.71342 47.639759,225.66351 72.304464,243.25565 176.2269,272.28778 278.67124,267.32368 380.42674,246.5162 c 41.75636,-7.33488 73.64786,-18.89756 70.10189,-45.64774 -15.26033,-19.27202 -40.91152,-2.17602 -64.39592,7.33624 L 73.93474,206.57443 z"
     id="path3752"
     sodipodi:nodetypes="ccccccc"
     inkscape:connector-curvature="0" />
</svg>
